<mxfile host="app.diagrams.net" modified="2023-12-01T12:00:47.247Z" agent="Mozilla/5.0 (Windows NT 10.0; Win64; x64) AppleWebKit/537.36 (KHTML, like Gecko) Chrome/119.0.0.0 Safari/537.36" etag="Dpi22H5vnrVuBN3araqi" version="22.1.5" type="device">
  <diagram name="1 oldal" id="Eoc91ZO2bPAoRf95zQQq">
    <mxGraphModel dx="1176" dy="846" grid="1" gridSize="10" guides="1" tooltips="1" connect="1" arrows="1" fold="1" page="1" pageScale="1" pageWidth="827" pageHeight="1169" math="0" shadow="0">
      <root>
        <mxCell id="0" />
        <mxCell id="1" parent="0" />
        <mxCell id="yJ3nKlxOjGw7-AYpLivc-1" value="" style="whiteSpace=wrap;html=1;aspect=fixed;" parent="1" vertex="1">
          <mxGeometry x="110" y="100" width="330" height="330" as="geometry" />
        </mxCell>
        <mxCell id="yJ3nKlxOjGw7-AYpLivc-2" value="hír címének maximális hossza" style="rounded=0;whiteSpace=wrap;html=1;align=left;" parent="1" vertex="1">
          <mxGeometry x="160" y="220" width="170" height="30" as="geometry" />
        </mxCell>
        <mxCell id="yJ3nKlxOjGw7-AYpLivc-3" value="admin_Szerkesztes" style="text;html=1;strokeColor=none;fillColor=none;align=center;verticalAlign=middle;whiteSpace=wrap;rounded=0;" parent="1" vertex="1">
          <mxGeometry x="160" y="120" width="130" height="40" as="geometry" />
        </mxCell>
        <mxCell id="yJ3nKlxOjGw7-AYpLivc-4" value="hír maximális hossza" style="rounded=0;whiteSpace=wrap;html=1;align=left;" parent="1" vertex="1">
          <mxGeometry x="160" y="270" width="170" height="30" as="geometry" />
        </mxCell>
        <mxCell id="yJ3nKlxOjGw7-AYpLivc-6" value="34" style="rounded=0;whiteSpace=wrap;html=1;" parent="1" vertex="1">
          <mxGeometry x="340" y="220" width="50" height="30" as="geometry" />
        </mxCell>
        <mxCell id="yJ3nKlxOjGw7-AYpLivc-7" value="500" style="rounded=0;whiteSpace=wrap;html=1;" parent="1" vertex="1">
          <mxGeometry x="340" y="270" width="50" height="30" as="geometry" />
        </mxCell>
        <mxCell id="yJ3nKlxOjGw7-AYpLivc-8" value="Mentés" style="rounded=0;whiteSpace=wrap;html=1;fillColor=#008a00;strokeColor=#005700;fontColor=#ffffff;" parent="1" vertex="1">
          <mxGeometry x="160" y="360" width="50" height="30" as="geometry" />
        </mxCell>
        <mxCell id="yJ3nKlxOjGw7-AYpLivc-9" value="Mégse" style="rounded=0;whiteSpace=wrap;html=1;fillColor=#e51400;strokeColor=#B20000;fontColor=#000000;" parent="1" vertex="1">
          <mxGeometry x="340" y="360" width="50" height="30" as="geometry" />
        </mxCell>
      </root>
    </mxGraphModel>
  </diagram>
</mxfile>
